<?xml version="1.0" standalone="no"?>
<!DOCTYPE svg PUBLIC "-//W3C//DTD SVG 20010904//EN"
 "http://www.w3.org/TR/2001/REC-SVG-20010904/DTD/svg10.dtd">
<svg version="1.0" xmlns="http://www.w3.org/2000/svg"
 width="64.000000pt" height="64.000000pt" viewBox="0 0 64.000000 64.000000"
 preserveAspectRatio="xMidYMid meet">
<metadata>
</metadata>
<g transform="translate(0.000000,64.000000) scale(0.100000,-0.100000)"
fill="#000000" stroke="none">
<path d="M235 585 c-13 -30 -25 -55 -27 -55 -2 0 -28 7 -58 15 -30 8 -58 11
-62 7 -4 -4 -1 -32 7 -62 8 -30 15 -56 15 -58 0 -2 -25 -14 -55 -27 -30 -14
-55 -30 -55 -36 0 -7 18 -27 40 -46 22 -19 40 -39 40 -44 0 -5 -11 -27 -25
-49 -39 -61 -35 -69 38 -72 l62 -3 3 -62 c3 -73 11 -77 72 -38 22 14 44 25 49
25 5 0 25 -18 44 -40 19 -22 39 -40 46 -40 6 0 22 25 36 55 13 30 25 55 27 55
2 0 28 -7 58 -15 30 -8 58 -11 62 -7 4 4 1 32 -7 62 -8 30 -15 56 -15 58 0 2
25 14 55 27 30 14 55 30 55 36 0 7 -18 27 -40 46 -22 19 -40 39 -40 44 0 5 11
27 25 49 39 61 35 69 -37 72 l-63 3 -3 63 c-3 72 -14 78 -74 37 -20 -14 -41
-25 -47 -25 -5 0 -25 18 -44 40 -19 22 -39 40 -46 40 -6 0 -22 -25 -36 -55z
m165 -110 c57 -29 92 -88 92 -155 0 -99 -73 -172 -172 -172 -69 0 -126 36
-160 101 -17 33 -15 112 3 148 21 39 71 81 105 89 15 3 32 7 37 9 16 4 68 -7
95 -20z"/>
<path d="M255 461 c-11 -5 -28 -18 -38 -29 -18 -19 -17 -22 13 -81 17 -34 38
-65 47 -68 20 -8 47 9 51 32 6 29 -29 95 -50 95 -23 0 -23 -2 2 -50 11 -22 16
-40 12 -40 -14 0 -45 77 -39 94 4 9 16 16 27 16 15 0 28 -15 47 -55 30 -61 27
-79 -18 -102 -33 -17 -57 0 -93 67 -24 45 -30 50 -38 35 -6 -9 -8 -42 -6 -72
4 -46 10 -60 42 -91 35 -36 39 -37 106 -37 67 0 71 1 107 38 37 36 38 40 38
107 0 67 -1 71 -37 107 -33 33 -43 37 -95 40 -32 1 -67 -1 -78 -6z"/>
</g>
</svg>
